<?xml version="1.0" encoding="utf-8" ?>
<svg xmlns="http://www.w3.org/2000/svg" xmlns:xlink="http://www.w3.org/1999/xlink" width="1024" height="1024">
	<path d="M498.501 43.7808Q499.495 43.7026 500.491 43.6642C620.157 38.9512 740.671 87.2527 828.391 167.805Q832.598 171.653 836.71 175.602Q840.821 179.552 844.834 183.601Q848.847 187.651 852.76 191.798Q856.673 195.944 860.482 200.186Q864.292 204.428 867.996 208.761Q871.7 213.095 875.297 217.519Q878.894 221.942 882.381 226.453Q885.867 230.963 889.243 235.558Q892.618 240.153 895.879 244.829Q899.14 249.506 902.286 254.261Q905.431 259.016 908.459 263.846Q911.487 268.677 914.395 273.581Q917.303 278.484 920.09 283.458Q922.877 288.432 925.541 293.472Q928.205 298.513 930.744 303.617Q933.284 308.722 935.697 313.887Q938.11 319.052 940.396 324.275Q942.682 329.498 944.839 334.776Q946.995 340.053 949.022 345.382Q951.048 350.711 952.943 356.088Q954.838 361.465 956.601 366.887Q958.363 372.309 959.992 377.773Q961.621 383.236 963.115 388.738Q964.609 394.24 965.967 399.777Q967.326 405.314 968.548 410.883Q969.77 416.452 970.855 422.049Q971.94 427.646 972.887 433.268Q973.834 438.89 974.643 444.533Q975.452 450.177 976.122 455.838Q976.792 461.5 977.323 467.176Q977.854 472.853 978.245 478.541Q978.637 484.228 978.888 489.924Q979.161 495.669 979.294 501.42Q979.426 507.17 979.417 512.922Q979.408 518.674 979.258 524.424Q979.108 530.174 978.817 535.919Q978.526 541.664 978.093 547.399Q977.661 553.135 977.089 558.859Q976.516 564.582 975.803 570.29Q975.09 575.997 974.237 581.686Q973.384 587.374 972.392 593.04Q971.4 598.705 970.268 604.345Q969.137 609.985 967.868 615.595Q966.599 621.205 965.193 626.783Q963.787 632.36 962.244 637.901Q960.701 643.443 959.022 648.944Q957.344 654.446 955.531 659.905Q953.718 665.363 951.772 670.776Q949.826 676.189 947.747 681.552Q945.668 686.915 943.459 692.226Q941.249 697.537 938.91 702.792Q936.571 708.046 934.103 713.242Q931.635 718.438 929.041 723.572Q926.447 728.705 923.727 733.774Q921.008 738.842 918.165 743.843Q915.322 748.843 912.357 753.772Q909.392 758.701 906.307 763.555Q903.222 768.41 900.018 773.187Q896.815 777.965 893.496 782.662Q890.176 787.36 886.742 791.974Q883.308 796.589 879.762 801.118Q876.216 805.647 872.56 810.087Q868.904 814.528 865.14 818.877Q861.376 823.226 857.506 827.482C768.803 923.615 654.65 973.706 524.496 978.964Q504.478 979.342 484.49 978.175Q464.502 977.008 444.663 974.304C353.868 961.087 264.799 920.215 197.162 857.978Q193.696 854.818 190.293 851.59Q186.891 848.362 183.553 845.067Q180.215 841.771 176.944 838.41Q173.672 835.049 170.468 831.624Q167.265 828.198 164.129 824.709Q160.994 821.221 157.929 817.671Q154.864 814.12 151.871 810.51Q148.877 806.899 145.956 803.229Q143.035 799.56 140.187 795.833Q137.339 792.106 134.567 788.323Q131.794 784.54 129.097 780.703Q126.4 776.865 123.78 772.975Q121.16 769.085 118.617 765.143Q116.075 761.202 113.612 757.21Q111.149 753.219 108.766 749.179Q106.383 745.139 104.08 741.053Q101.778 736.966 99.5574 732.835Q97.3369 728.704 95.1991 724.529Q93.0612 720.354 91.0069 716.138Q88.9526 711.921 86.9826 707.665Q85.0127 703.408 83.1278 699.113Q81.243 694.818 79.444 690.487Q77.645 686.155 75.9326 681.788Q74.2203 677.422 72.5951 673.022Q70.97 668.622 69.4328 664.191Q67.8956 659.76 66.4468 655.299Q64.9981 650.838 63.6385 646.349Q62.2789 641.86 61.0089 637.345Q59.7389 632.83 58.5591 628.29Q57.3792 623.751 56.2899 619.189Q55.2007 614.627 54.2024 610.044Q53.2042 605.461 52.2974 600.859Q49.0228 584.495 46.9636 567.935Q44.9043 551.374 44.0716 534.707Q43.7961 528.925 43.6638 523.137Q43.5314 517.35 43.5422 511.561Q43.553 505.772 43.707 499.985Q43.8609 494.198 44.158 488.416Q44.455 482.635 44.895 476.863Q45.3349 471.091 45.9175 465.331Q46.5 459.571 47.2249 453.828Q47.9497 448.085 48.8163 442.361Q49.683 436.637 50.6909 430.936Q51.6989 425.236 52.8475 419.562Q53.9962 413.888 55.2848 408.244Q56.5734 402.601 58.0012 396.991Q59.4289 391.38 60.995 385.807Q62.5611 380.234 64.2646 374.702Q65.968 369.169 67.8078 363.68Q69.6476 358.191 71.6226 352.75Q73.5975 347.308 75.7064 341.917Q77.8154 336.525 80.057 331.188Q82.2986 325.851 84.6716 320.57Q87.0445 315.29 89.5473 310.07Q92.0501 304.85 94.6813 299.694Q97.3124 294.537 100.07 289.447Q102.828 284.358 105.711 279.337Q108.594 274.317 111.6 269.37Q114.606 264.423 117.734 259.552Q120.862 254.68 124.109 249.888Q127.356 245.095 130.721 240.384Q134.085 235.674 137.565 231.048Q141.046 226.421 144.639 221.883Q148.233 217.344 151.937 212.896Q155.642 208.447 159.455 204.092Q163.269 199.737 167.189 195.477Q171.153 191.181 175.222 186.984Q179.291 182.787 183.463 178.692Q187.634 174.597 191.906 170.607Q196.178 166.616 200.548 162.733Q204.917 158.85 209.381 155.076Q213.845 151.302 218.402 147.639Q222.958 143.977 227.604 140.429Q232.249 136.881 236.981 133.449Q241.713 130.016 246.529 126.702Q251.344 123.389 256.241 120.195Q261.137 117.001 266.11 113.93Q271.084 110.858 276.132 107.911Q281.181 104.964 286.3 102.142Q291.42 99.321 296.608 96.6273Q301.796 93.9336 307.049 91.3691Q312.302 88.8047 317.617 86.3711Q322.932 83.9376 328.306 81.6364Q333.68 79.3352 339.109 77.1678Q344.538 75.0003 350.019 72.968Q355.5 70.9357 361.029 69.0397Q366.559 67.1438 372.134 65.3853Q377.709 63.6269 383.326 62.007Q388.942 60.3872 394.597 58.9069Q400.253 57.4267 405.943 56.0869Q411.633 54.7472 417.354 53.5487Q423.076 52.3503 428.825 51.2939Q434.575 50.2375 440.348 49.3238Q446.122 48.4101 451.917 47.6397Q457.711 46.8692 463.523 46.2425Q469.335 45.6158 475.161 45.1333Q480.987 44.6507 486.823 44.3125Q492.659 43.9743 498.501 43.7808Z"/>
	<path fill="#E22325" d="M494.725 74.2921Q496.217 74.1699 497.712 74.0877C516.996 73.0073 536.576 74.3313 555.757 76.3493Q560.021 76.7886 564.275 77.3117Q568.529 77.8348 572.772 78.4416Q577.015 79.0483 581.245 79.7384Q585.475 80.4284 589.691 81.2016Q593.907 81.9748 598.106 82.8308Q602.306 83.6867 606.488 84.6252Q610.67 85.5636 614.833 86.5842Q618.996 87.6047 623.138 88.707Q627.28 89.8092 631.4 90.9928Q635.519 92.1763 639.614 93.4406Q643.71 94.705 647.78 96.0497Q651.849 97.3944 655.892 98.8189Q659.934 100.243 663.948 101.747Q667.962 103.251 671.945 104.833Q675.928 106.416 679.88 108.076Q683.831 109.737 687.749 111.475Q691.667 113.213 695.55 115.027Q699.433 116.842 703.28 118.733Q707.126 120.623 710.935 122.59Q714.743 124.556 718.512 126.596Q722.282 128.637 726.01 130.751Q729.738 132.865 733.424 135.053Q737.11 137.24 740.753 139.5Q744.395 141.759 747.992 144.09Q751.589 146.42 755.139 148.821Q758.69 151.222 762.193 153.692Q765.695 156.163 769.148 158.702Q772.602 161.24 776.004 163.847Q779.407 166.453 782.758 169.126Q786.109 171.798 789.406 174.536Q792.704 177.274 795.947 180.077Q799.19 182.879 802.377 185.745Q806.429 189.332 810.391 193.018Q814.353 196.704 818.221 200.489Q822.09 204.273 825.863 208.152Q829.636 212.031 833.311 216.004Q836.986 219.976 840.561 224.038Q844.136 228.101 847.609 232.251Q851.081 236.402 854.449 240.638Q857.817 244.873 861.078 249.192Q864.34 253.51 867.492 257.909Q870.645 262.307 873.687 266.782Q876.729 271.258 879.659 275.808Q882.588 280.358 885.404 284.98Q888.219 289.601 890.918 294.292Q893.617 298.982 896.198 303.738Q898.779 308.495 901.241 313.314Q903.703 318.133 906.044 323.012Q908.385 327.891 910.604 332.827Q912.823 337.763 914.918 342.752Q917.013 347.742 918.983 352.782Q920.952 357.822 922.796 362.91Q924.64 367.998 926.356 373.13Q928.072 378.263 929.66 383.436Q931.247 388.609 932.706 393.821Q934.164 399.032 935.492 404.278Q936.82 409.524 938.016 414.802Q939.213 420.079 940.278 425.385Q941.343 430.691 942.275 436.022Q943.207 441.352 944.006 446.705Q944.805 452.057 945.47 457.427Q946.135 462.798 946.666 468.183Q947.198 473.569 947.594 478.966Q947.991 484.363 948.253 489.768Q948.528 495.115 948.672 500.467Q948.815 505.818 948.828 511.172Q948.84 516.526 948.722 521.878Q948.603 527.231 948.353 532.579Q948.103 537.927 947.721 543.267Q947.34 548.607 946.828 553.936Q946.316 559.265 945.673 564.58Q945.031 569.896 944.258 575.193Q943.485 580.491 942.583 585.768Q941.68 591.045 940.649 596.299Q939.617 601.552 938.457 606.779Q937.297 612.005 936.009 617.202Q934.721 622.398 933.306 627.562Q931.891 632.725 930.349 637.852Q928.808 642.979 927.141 648.067Q925.475 653.155 923.684 658.2Q921.893 663.245 919.979 668.245Q918.065 673.245 916.029 678.197Q913.993 683.148 911.836 688.048Q909.679 692.948 907.402 697.794Q905.126 702.639 902.731 707.428Q900.336 712.216 897.825 716.944Q895.314 721.673 892.687 726.338Q890.06 731.003 887.32 735.602Q884.58 740.202 881.728 744.732Q878.876 749.263 875.913 753.723Q872.951 758.182 869.88 762.567Q866.809 766.953 863.631 771.262Q860.454 775.57 857.171 779.8Q853.889 784.03 850.504 788.177Q847.119 792.325 843.633 796.389Q840.147 800.452 836.563 804.429Q833.682 807.643 830.737 810.798Q827.793 813.954 824.786 817.05Q821.779 820.147 818.711 823.183Q815.643 826.219 812.516 829.193Q809.388 832.167 806.202 835.079Q803.015 837.99 799.772 840.838Q796.528 843.685 793.229 846.467Q789.929 849.25 786.575 851.966Q783.22 854.682 779.812 857.33Q776.405 859.979 772.945 862.56Q769.485 865.14 765.975 867.651Q762.464 870.162 758.904 872.603Q755.344 875.043 751.737 877.413Q748.129 879.782 744.475 882.079Q740.821 884.376 737.122 886.6Q733.423 888.824 729.68 890.973Q725.937 893.123 722.153 895.198Q718.368 897.273 714.543 899.272Q710.718 901.271 706.853 903.193Q702.989 905.116 699.087 906.961Q695.185 908.806 691.248 910.573Q687.31 912.341 683.338 914.029Q679.365 915.717 675.361 917.326Q671.356 918.935 667.319 920.464Q663.283 921.993 659.217 923.442Q655.151 924.89 651.058 926.257Q646.964 927.624 642.844 928.91Q638.723 930.195 634.578 931.398Q630.433 932.601 626.265 933.722Q622.097 934.842 617.907 935.879Q613.718 936.916 609.508 937.87Q605.299 938.823 601.071 939.693C576.928 944.573 552.198 947.036 527.624 948.317C416.453 953.671 304.759 911.656 221.541 838.614Q217.513 835.01 213.575 831.309Q209.637 827.607 205.79 823.811Q201.943 820.015 198.19 816.126Q194.437 812.237 190.78 808.258Q187.123 804.278 183.564 800.211Q180.005 796.143 176.546 791.99Q173.088 787.837 169.732 783.601Q166.376 779.364 163.124 775.047Q159.872 770.731 156.727 766.336Q153.581 761.941 150.544 757.47Q147.507 753 144.579 748.456Q141.652 743.913 138.837 739.3Q136.021 734.687 133.319 730.006Q130.617 725.325 128.03 720.58Q125.443 715.835 122.972 711.028Q120.502 706.221 118.15 701.355Q115.797 696.489 113.564 691.568Q111.331 686.646 109.219 681.671Q107.107 676.696 105.117 671.671Q103.126 666.646 101.26 661.575Q99.3926 656.503 97.6499 651.387Q95.9073 646.271 94.2901 641.114Q92.6728 635.957 91.1819 630.762Q89.691 625.567 88.3273 620.337Q86.9636 615.107 85.7279 609.846Q84.4923 604.585 83.3854 599.295Q82.2785 594.005 81.301 588.689Q80.3236 583.374 79.4761 578.036Q78.6287 572.698 77.9117 567.341Q77.1948 561.984 76.6088 556.612Q76.0228 551.239 75.5681 545.853Q75.1134 540.468 74.7903 535.073C67.7222 420.918 110.104 306.744 185.412 221.52Q188.363 218.199 191.38 214.939Q194.398 211.679 197.481 208.48Q200.563 205.282 203.71 202.146Q206.857 199.01 210.066 195.939Q213.275 192.867 216.546 189.861Q219.817 186.855 223.148 183.916Q226.479 180.976 229.868 178.105Q233.258 175.233 236.704 172.431Q240.151 169.628 243.654 166.896Q247.157 164.164 250.714 161.503Q254.271 158.842 257.881 156.253Q261.492 153.665 265.153 151.15Q268.815 148.635 272.527 146.194Q276.239 143.753 279.999 141.388Q283.76 139.023 287.567 136.734Q291.375 134.446 295.227 132.234Q299.08 130.023 302.977 127.89Q306.874 125.757 310.813 123.703Q314.752 121.649 318.731 119.675Q322.711 117.701 326.73 115.808Q330.749 113.915 334.805 112.104Q338.861 110.292 342.953 108.563Q347.045 106.833 351.171 105.187Q355.297 103.541 359.455 101.978Q363.614 100.416 367.803 98.9376Q371.992 97.4594 376.21 96.0661Q380.429 94.6727 384.674 93.3649Q388.92 92.0571 393.191 90.8353Q397.462 89.6134 401.756 88.4781Q406.051 87.3429 410.368 86.2946Q414.685 85.2463 419.022 84.2854Q423.359 83.3245 427.715 82.4514C449.878 78.0187 472.188 75.6648 494.725 74.2921Z"/>
	<path d="M507.184 77.75Q508.853 77.6123 510.527 77.5527C548.558 76.2115 584.024 90.6057 611.231 116.892C615.586 121.099 621.777 131.081 626.535 133.524C630.803 135.715 636.055 137.152 640.577 138.837Q652.273 143.168 663.667 148.24Q671.152 151.497 678.496 155.06Q685.84 158.623 693.031 162.485Q700.222 166.348 707.247 170.503Q714.273 174.658 721.122 179.1Q727.971 183.541 734.631 188.26Q741.291 192.98 747.75 197.97Q754.21 202.96 760.459 208.211Q766.708 213.463 772.735 218.968Q776.338 222.239 779.859 225.597Q783.379 228.956 786.816 232.401Q790.253 235.845 793.604 239.374Q796.954 242.902 800.217 246.513Q803.479 250.123 806.652 253.812Q809.824 257.502 812.904 261.269Q815.984 265.036 818.971 268.878Q821.957 272.72 824.847 276.634Q827.738 280.549 830.531 284.533Q833.323 288.518 836.017 292.57Q838.71 296.623 841.303 300.741Q843.896 304.858 846.386 309.039Q848.876 313.219 851.262 317.46Q853.648 321.701 855.929 325.999Q858.209 330.298 860.383 334.651Q862.557 339.004 864.622 343.41Q866.688 347.816 868.644 352.271Q870.6 356.727 872.445 361.229Q874.29 365.732 876.024 370.278Q877.758 374.825 879.378 379.413Q880.999 384.001 882.506 388.628Q884.013 393.255 885.405 397.917Q886.797 402.58 888.074 407.275Q889.35 411.971 890.511 416.696Q891.671 421.422 892.714 426.175Q893.757 430.927 894.682 435.705Q895.608 440.482 896.415 445.28Q897.222 450.079 897.91 454.896Q898.599 459.713 899.168 464.545Q899.737 469.378 900.186 474.223Q900.636 479.068 900.966 483.923Q901.295 488.778 901.505 493.639C905.741 601.816 870.73 699.817 796.966 779.409Q794.223 782.357 791.419 785.247Q788.615 788.137 785.75 790.967Q782.886 793.798 779.963 796.567Q777.04 799.337 774.06 802.045Q771.079 804.752 768.043 807.397Q765.006 810.042 761.915 812.622Q758.823 815.202 755.679 817.717Q752.534 820.232 749.337 822.681Q746.14 825.129 742.892 827.51Q739.645 829.891 736.348 832.203Q733.051 834.515 729.706 836.757Q726.362 839 722.971 841.172Q719.58 843.343 716.144 845.443Q712.709 847.544 709.23 849.571Q705.751 851.599 702.23 853.553Q698.709 855.507 695.148 857.387Q691.587 859.267 687.987 861.072Q684.387 862.876 680.751 864.605Q677.114 866.334 673.442 867.986Q669.77 869.638 666.063 871.213Q662.357 872.788 658.619 874.285Q654.881 875.781 651.112 877.199Q647.343 878.617 643.545 879.955Q639.747 881.294 635.922 882.553Q632.097 883.811 628.247 884.989Q624.396 886.167 620.522 887.264Q616.647 888.361 612.751 889.377Q608.854 890.392 604.937 891.325Q601.02 892.259 597.084 893.11Q593.148 893.961 589.195 894.729Q585.243 895.498 581.275 896.183Q577.307 896.868 573.325 897.47C554.706 900.327 535.856 901.257 517.056 901.985C452.61 903.228 391.614 888.609 333.913 860.32C317.819 852.429 302.477 842.573 287.874 832.218Q284.749 830.008 281.668 827.738Q278.586 825.467 275.55 823.137Q272.513 820.807 269.523 818.418Q266.533 816.029 263.589 813.582Q260.646 811.136 257.751 808.632Q254.856 806.128 252.01 803.569Q249.165 801.009 246.369 798.395Q243.574 795.78 240.83 793.111Q238.087 790.443 235.396 787.721Q232.704 785 230.067 782.226Q227.429 779.453 224.846 776.628Q222.263 773.804 219.736 770.929Q217.208 768.055 214.737 765.132Q212.266 762.209 209.853 759.239Q207.439 756.268 205.084 753.251Q202.729 750.234 200.433 747.171Q198.138 744.109 195.902 741.002Q193.666 737.896 191.492 734.746Q189.317 731.596 187.204 728.405Q185.091 725.213 183.041 721.981Q180.991 718.749 179.004 715.478Q177.017 712.207 175.094 708.897Q173.172 705.588 171.314 702.241Q169.456 698.895 167.664 695.513Q165.872 692.131 164.146 688.715Q162.42 685.298 160.761 681.849Q159.102 678.4 157.511 674.919Q155.919 671.438 154.396 667.927Q152.873 664.416 151.418 660.875Q149.964 657.335 148.579 653.767Q147.194 650.199 145.878 646.605Q144.563 643.01 143.318 639.391Q141.719 634.846 140.234 630.262Q138.749 625.679 137.378 621.06Q136.007 616.441 134.751 611.789Q133.494 607.138 132.354 602.457Q131.214 597.776 130.19 593.068Q129.166 588.359 128.259 583.627Q127.352 578.895 126.563 574.142Q125.774 569.389 125.103 564.618Q124.432 559.847 123.879 555.061Q123.327 550.274 122.893 545.476Q122.46 540.677 122.145 535.869Q121.831 531.061 121.636 526.247Q121.441 521.433 121.365 516.616Q121.289 511.798 121.333 506.98Q121.377 502.162 121.541 497.347Q121.704 492.532 121.987 487.722Q122.27 482.912 122.672 478.111Q123.074 473.309 123.594 468.519Q124.115 463.729 124.755 458.954Q125.395 454.179 126.153 449.42Q126.91 444.662 127.786 439.924Q128.662 435.186 129.655 430.472Q130.648 425.757 131.757 421.068Q132.867 416.38 134.092 411.72Q135.318 407.06 136.658 402.433Q137.999 397.805 139.454 393.212Q140.909 388.619 142.478 384.063Q144.046 379.507 145.728 374.992Q147.409 370.477 149.201 366.004Q150.994 361.532 152.897 357.106Q154.8 352.679 156.812 348.301Q158.824 343.924 160.944 339.597Q162.781 335.869 164.696 332.181Q166.611 328.493 168.604 324.846Q170.596 321.199 172.665 317.595Q174.733 313.991 176.877 310.431Q179.021 306.871 181.24 303.357Q183.458 299.843 185.75 296.377Q188.042 292.91 190.407 289.493Q192.771 286.075 195.207 282.708Q197.643 279.341 200.149 276.027Q202.655 272.712 205.231 269.45Q207.806 266.189 210.45 262.982Q213.093 259.776 215.804 256.626Q218.514 253.476 221.29 250.383Q224.067 247.291 226.907 244.258Q229.748 241.224 232.652 238.252Q235.555 235.279 238.521 232.368Q241.487 229.457 244.513 226.609Q247.54 223.761 250.625 220.977Q253.711 218.194 256.855 215.476Q259.998 212.758 263.198 210.107Q266.399 207.455 269.654 204.872Q272.909 202.289 276.218 199.775Q279.527 197.26 282.888 194.816Q286.249 192.372 289.661 190Q293.072 187.627 296.533 185.327Q299.994 183.026 303.503 180.799Q307.011 178.572 310.566 176.42Q314.121 174.267 317.72 172.19Q321.319 170.112 324.961 168.111Q328.604 166.11 332.287 164.186Q335.97 162.262 339.694 160.416Q343.417 158.57 347.178 156.803C364.862 148.509 383 142.186 401.461 135.908C405.041 131.155 408.648 126.414 412.583 121.947C438.513 92.5052 468.859 80.2142 507.184 77.75Z"/>
	<path fill="#AAD7C9" d="M401.551 272.392C402.094 272.56 402.622 273.053 403.086 273.385C403.357 274.471 403.257 274.307 402.827 275.244C401.18 276.405 400.769 276.382 398.834 276.535C397.793 276.227 397.612 276.337 396.896 275.459C397.704 273.959 400.068 273.145 401.551 272.392Z"/>
	<path fill="#F3D6A8" d="M403.688 311.622C404.393 311.855 405.057 312.162 405.737 312.459C408.429 315.945 408.076 320.888 408.32 325.114C405.524 322.701 404.356 315.173 403.688 311.622Z"/>
	<path fill="#E22325" d="M305.101 521.779C307.213 518.882 309.554 516.409 312.119 513.911Q313.874 520.54 315.474 527.209C313.454 525.898 311.517 524.268 309.055 524.06C307.822 523.202 306.415 522.512 305.101 521.779Z"/>
	<path fill="#477B4D" d="M619.268 268.215C622.516 269.69 625.683 272.443 628.868 274.234C637.739 279.221 640.593 277.35 649.327 279.04L649.513 279.589L647.754 280.572C640.146 283.289 631.924 283.557 623.942 284.068C622.99 278.621 621.06 273.427 619.268 268.215Z"/>
	<path fill="#E9991B" d="M546.125 442.099L557.505 437.104C557.49 445.517 557.252 454.006 557.786 462.403C555.282 463.668 552.919 465.032 550.546 466.526C547.815 458.37 548.217 450.235 546.125 442.099Z"/>
	<path fill="#F3D6A8" d="M347.453 811.309L348.458 811.498C351.165 816.13 351.538 840.811 351.54 847.284C346.229 845.289 341.209 842.634 336.21 839.975C332.415 837.826 328.674 835.644 324.995 833.3C331.466 824.223 338.484 817.832 347.453 811.309Z"/>
	<path fill="#F3D6A8" d="M672.617 809.761C682.658 815.552 690.126 823.831 697.931 832.222L687.155 838.555Q678.871 842.918 670.421 846.952C671.188 834.51 671.115 822.169 672.617 809.761Z"/>
	<path fill="#10BCD1" d="M691.203 786.872C704.821 793.168 714.906 803.917 724.072 815.51C720.402 817.954 716.578 820.213 712.838 822.552L711.988 822.896C709.479 822.465 696.902 809.403 693.499 806.613C689.455 803.299 685.148 800.394 680.809 797.488Q685.877 792.054 691.203 786.872Z"/>
	<path fill="#FEFEFE" d="M681.948 226.593C687.292 228.881 692.936 231.021 697.9 234.069C689.979 247.455 682.001 260.782 674.458 274.386C669.667 283.026 665.366 292.008 660.322 300.487C657.975 296.829 655.35 293.578 652.53 290.275C665.024 281.204 673.452 271.177 681.967 258.452C676.412 257.73 670.2 258.483 664.583 258.688C675.092 249.703 679.328 239.979 681.948 226.593Z"/>
	<path fill="#10BCD1" d="M333.466 787.392C336.283 787.783 343.581 795.182 346.255 797.361C330.535 808.088 326.016 813.075 314.174 827.178Q307.961 822.73 301.541 818.587C309.959 804.42 319.119 795.495 333.466 787.392Z"/>
	<path fill="#F3D6A8" d="M629.712 299.507C633.417 299.391 636.633 299.983 639.736 302.168C643.635 304.915 645.756 309.384 646.434 314.014C647.825 323.501 643.942 334.16 638.145 341.595C631.055 350.688 622.818 353.735 611.607 355.19C614.648 343.776 617.373 331.686 621.767 320.735C623.799 323.138 625.222 325.46 626.628 328.25C624.886 332.03 622.923 335.149 620.309 338.374Q621.155 337.971 621.992 337.55C625.273 335.897 628.429 333.695 629.516 329.984C630.965 325.034 627.997 319.832 625.845 315.55C627.112 313.556 628.496 310.953 630.672 309.825C631.931 309.172 632.576 309.28 633.893 309.643C637.005 312.506 637.216 317.434 638.501 321.307L639.071 321.514C639.709 320.156 640.061 318.936 640.229 317.436C640.607 314.065 639.771 310.187 637.558 307.544C636.252 305.984 634.505 304.939 632.443 304.849C628.34 304.671 625.185 308.105 622.298 310.562C624.083 305.947 625.764 302.619 629.712 299.507Z"/>
	<path fill="#10BCD1" d="M590.43 456.557C601.114 460.441 608.803 473.195 614.301 482.45C611.195 487.283 604.017 499.343 598.498 501.221L597.634 500.645C588.899 491.933 581.1 482.204 572.485 473.34C578.227 467.551 584.664 462.42 590.43 456.557Z"/>
	<path fill="#10BCD1" d="M431.258 453.344C431.466 453.349 431.676 453.334 431.882 453.359C435.951 453.853 444.44 466.954 447.006 470.54C439.495 482.688 431.968 494.136 422.848 505.139L422.503 505.211C417.494 502.057 409.939 487.033 407.13 481.189C413.817 469.669 420.789 461.515 431.258 453.344Z"/>
	<path fill="#F3D6A8" d="M394.604 285.392C395.117 285.423 395.768 285.423 396.21 285.728C397.306 286.484 397.923 288.725 398.255 289.922C398.762 291.753 399.058 293.335 398.096 295.029C397.219 295.231 396.456 295.352 395.551 295.387L394.651 295.416C391.733 295.536 390.291 296.213 388.351 298.391C384.849 302.322 383.741 306.89 384.089 312.063C384.828 323.059 392.119 330.713 400.056 337.474C398.3 334.683 396.337 332.021 394.599 329.213C390.528 322.639 388.313 315.281 390.305 307.564C390.87 305.372 391.668 302.725 393.935 301.719C395.265 301.128 396.771 301.333 398.103 301.796C401.469 302.966 405.363 306.279 406.826 309.532C405.725 311.079 401.251 309.587 399.312 310.113C398.281 310.392 398.129 310.829 397.584 311.665C397.326 313.196 397.745 314.198 398.254 315.61L398.47 316.194C401.041 325.073 403.62 331.745 410.268 338.379C410.624 343.976 411.969 349.753 412.795 355.312C410.106 354.79 407.355 354.249 404.744 353.406C394.345 350.052 386.441 341.751 381.6 332.169C377.003 323.068 375.186 312.254 378.501 302.427C381.325 294.052 386.928 289.231 394.604 285.392Z"/>
	<path fill="#477B4D" d="M440.764 214.557C440.872 215.273 440.723 215.768 440.495 216.469C439.233 220.331 436.397 224.068 434.291 227.514C425.524 241.864 414.294 259.395 398.243 266.236C389.567 269.933 380.052 269.716 371.393 266.177C369.903 265.048 368.874 263.627 367.732 262.16C373.453 260.993 379.19 259.853 384.597 257.58C397.396 252.199 403.592 241.602 408.545 229.251C413.538 226.579 419.054 224.496 424.217 222.124C429.716 219.598 435.093 216.678 440.764 214.557Z"/>
	<path fill="#10BCD1" d="M556.855 482.471C561.482 483.119 581.739 506.791 586.563 511.566C579.755 516.061 572.993 520.058 565.682 523.681C560.874 525.958 555.709 527.616 550.712 529.439Q546.072 508.969 541.853 488.407C547.009 486.794 551.905 484.615 556.855 482.471Z"/>
	<path fill="#E22325" d="M719.488 757.371C735.529 761.395 748.488 776.736 757.419 789.806C749.497 794.729 742.572 801.86 735.296 807.711L734.671 808.142C732.295 807.757 722.789 796.485 720.134 794.161C713.472 788.329 706.138 784.528 698.3 780.529C705.571 773.034 712.476 765.112 719.488 757.371Z"/>
	<path fill="#E22325" d="M305.437 757.969C312.948 763.344 319.151 771.23 325.783 777.689C317.98 783.606 310.27 787.353 303.382 794.829C299.113 799.464 295.998 805.033 291.859 809.789C290.303 809.802 289.562 808.877 288.326 807.976C280.907 801.97 273.758 795.724 266.539 789.486C276.258 773.665 288.396 764.961 305.437 757.969Z"/>
	<path fill="#10BCD1" d="M459.786 479.243C467.477 482.144 475.12 485.432 482.748 488.514C482.337 493.083 481.211 497.742 480.393 502.265C478.559 512.41 476.53 522.671 475.33 532.91C470.979 531.955 466.655 530.462 462.378 529.203C452.26 525.557 443.038 521.042 434.3 514.713C443.353 503.048 451.742 491.682 459.786 479.243Z"/>
	<path fill="#10BCD1" d="M497.64 492.031C507.173 493.21 516.757 492.976 526.279 491.884C528.255 506.244 531.561 520.101 534.915 534.186L526.763 535.388C514.102 536.611 501.897 536.018 489.247 535.421C491.236 528.397 492.334 520.855 493.743 513.679C495.135 506.584 497.003 499.225 497.64 492.031Z"/>
	<path fill="#E22325" d="M778.152 704.534C792.971 704.113 808.26 709.261 820.899 716.76C813.391 726.487 806.074 736.454 798.663 746.267L792.906 741.84C777.511 731.08 763.378 728.796 744.965 730.121C755.458 720.814 765.044 710.176 778.152 704.534Z"/>
	<path fill="#E22325" d="M229.055 705.688C239.929 704.776 248.087 709.494 257.089 714.843C252.394 715.45 247.877 716.143 243.274 717.279C261.196 719.156 262.345 716.683 276.68 729.339C266.202 729.767 256.814 731.801 247.127 735.821C239.803 739.23 233.056 743.237 226.274 747.588C216.571 736.801 207.377 724.159 200.229 711.543C209.878 709.008 219.17 707.048 229.055 705.688Z"/>
	<path fill="#FEFEFE" d="M804.761 675.727C811.542 675.399 818.546 675.926 824.978 678.187C828.123 683.906 830.916 689.844 833.805 695.697C829.816 702.129 825.729 708.523 822.081 715.156C819.102 713.848 816.213 712.284 813.268 710.892C793.485 701.546 774.712 698.822 753.865 706.218C758.278 702.31 762.648 699.188 767.919 696.541C778.352 691.113 788.62 689.287 799.386 685.369C781.624 686.428 766.903 690.19 753.011 701.798C751.509 699.107 750.224 696.328 748.924 693.536C753.016 691.561 756.895 689.135 761.005 687.167Q763.57 685.936 766.19 684.83Q768.811 683.723 771.481 682.744Q774.152 681.764 776.866 680.914Q779.581 680.063 782.333 679.344Q785.085 678.624 787.869 678.037Q790.652 677.45 793.46 676.997Q796.269 676.545 799.095 676.227Q801.922 675.909 804.761 675.727Z"/>
	<path fill="#FEFEFE" d="M214.53 675.501C230.233 676.446 245.507 679.441 259.854 686.137C265.359 688.824 269.997 691.508 274.752 695.368L271.292 700.72C259.544 693.303 247.022 690.348 233.239 691.364C237.256 692.265 241.395 692.705 245.435 693.541C254.329 695.38 261.363 698.758 269.262 703.071C246.081 698.37 221.76 703.809 199.478 710.482C194.979 703.854 191.066 696.973 186.922 690.127C188.662 685.965 190.36 681.795 192.41 677.773C199.414 675.862 207.287 675.936 214.53 675.501Z"/>
	<path fill="#E22325" d="M802.203 640.472C802.745 640.398 803.104 640.585 803.615 640.753C810.684 648.56 818.51 665.753 823.226 675.719C800.662 670.093 775.829 676.781 755.673 687.208C752.727 688.524 749.962 690.142 747.164 691.74C743.494 687.378 740.126 682.662 736.657 678.132C755.686 660.825 778.29 649.393 802.203 640.472Z"/>
	<path fill="#F3D6A8" d="M467.888 435.525C470.348 437.183 472.83 438.683 475.518 439.945C497.57 450.304 523.44 450.135 546.125 442.099C548.217 450.235 547.815 458.37 550.546 466.526Q548.786 467.306 547.001 468.026C518.469 479.534 494.808 475.613 467.13 463.775C467.877 454.435 467.364 444.908 467.888 435.525Z"/>
	<path fill="#E22325" d="M216.535 639.931C245.39 646.546 267.236 656.387 286.013 680.02C284.192 682.527 282.387 685.024 280.722 687.64L280.249 687.313C270.217 680.286 261.916 672.602 250.434 667.6C258.035 674.681 265.387 681.779 270.899 690.681C267.892 689.184 263.19 686.065 259.854 686.137C245.507 679.441 230.233 676.446 214.53 675.501C207.597 674.571 200.395 675.29 193.439 675.692C199.669 662.992 208.351 651.428 216.535 639.931Z"/>
	<path fill="#E22325" d="M632.833 487.971C652.103 491.564 678.949 495.933 696.06 505.086C702.312 508.43 708.014 513.005 712.861 518.169C709.725 522.992 706.912 527.932 704.543 533.179C685.531 526.291 664.835 522.764 645.069 518.586C636.09 516.689 625.666 513.247 616.456 513.657L614.331 513.366C621.208 505.087 627.648 497.475 632.833 487.971Z"/>
	<path fill="#FEFEFE" d="M305.101 521.779C306.415 522.512 307.822 523.202 309.055 524.06C311.173 525.515 313.268 526.9 315.525 528.139C317.78 534.803 320.164 541.475 322.126 548.232C323.714 553.703 336.201 601.816 335.096 604.071C333.724 603.783 333.195 603.054 332.165 602.128C328.364 597.713 316.956 588.353 311.498 586.24C303.563 579.682 293.239 574.709 283.827 570.689C279.863 568.997 275.634 567.704 271.884 565.573C278.312 556.022 285.317 546.873 292.31 537.734C296.433 532.346 300.396 526.676 305.101 521.779Z"/>
	<path fill="#FEFEFE" d="M751.437 731.738C769.789 731.431 782.816 736.31 797.026 747.776C787.594 761.045 775.136 772.917 763.575 784.363L759.266 788.475C748.685 774.09 738.005 762.443 721.236 755.422C721.418 755.187 721.595 754.948 721.782 754.716C729.476 745.197 738.471 733.011 751.437 731.738Z"/>
	<path fill="#FEFEFE" d="M277.265 730.763C277.644 730.777 278.04 730.692 278.401 730.806C280.233 731.383 301.63 753.594 304.737 756.653C301.241 758.485 297.462 759.819 293.932 761.609C281.38 767.974 272.81 777.058 265.235 788.756L260.384 784.401C248.778 772.807 237.696 761.251 227.039 748.781C243.792 737.465 257.033 732.063 277.265 730.763Z"/>
	<path fill="#FEFEFE" d="M714.624 520.692C724.113 528.144 744.617 553.705 752.11 564.45C736.399 572.175 721.486 580.551 706.995 590.405Q695.429 598.361 684.96 607.714Q687.248 596.415 690.257 585.287Q693.267 574.158 696.987 563.247Q700.706 552.335 705.12 541.685Q709.534 531.036 714.624 520.692Z"/>
	<path fill="#E22325" d="M312.67 512.76C338.58 498.802 362.877 494.06 391.194 487.53C396.006 497.144 401.699 505.761 408.607 513.97C401.58 515.476 360.259 522.612 357.467 525.31C352.466 526.945 347.217 528.116 342.063 529.164C336.275 528.782 326.619 532.374 320.906 533.97C318.356 526.821 315.51 519.797 312.67 512.76Z"/>
	<path fill="#FEFEFE" d="M563.389 277.727C569.953 277.585 576.521 278.3 582.223 281.846Q582.762 282.189 583.284 282.557Q583.806 282.926 584.309 283.32Q584.812 283.714 585.295 284.133Q585.777 284.551 586.239 284.993Q586.701 285.435 587.14 285.899Q587.579 286.363 587.995 286.848Q588.41 287.333 588.801 287.838Q589.193 288.344 589.558 288.867Q589.924 289.391 590.264 289.933Q590.603 290.474 590.915 291.031Q591.228 291.589 591.512 292.161Q591.796 292.733 592.052 293.319Q592.308 293.904 592.534 294.502Q592.76 295.099 592.957 295.707Q593.154 296.315 593.32 296.932Q593.486 297.549 593.622 298.173C595.128 305.342 593.125 313.355 589.055 319.395C583.886 327.066 576.214 331.01 567.288 332.598C559.63 332.232 552.59 330.743 546.432 325.841C540.219 320.896 536.365 313.938 535.499 306.056C534.731 299.071 536.324 291.611 540.957 286.176C546.741 279.392 555.071 278.334 563.389 277.727Z"/>
	<path d="M554.228 287.165C556.667 287.188 559.189 287.134 561.544 287.849C565.321 288.996 568.497 291.44 570.256 295.01C572.001 298.551 572.15 302.78 570.839 306.485C569.567 310.08 566.884 313.288 563.315 314.757C559.39 316.373 556.011 315.68 552.219 314.105C548.938 311.924 546.78 309.477 545.719 305.605C544.116 299.75 545.702 294.692 548.536 289.624C549.027 291.996 549.304 294.723 551.323 296.345C552.291 297.122 553.695 297.556 554.931 297.325C555.981 297.129 556.957 296.46 557.599 295.621C558.53 294.405 558.961 292.838 558.638 291.32C558.139 288.972 556.148 288.194 554.228 287.165Z"/>
	<path fill="#FEFEFE" d="M457.997 277.305C465.891 276.513 473.768 277.073 480.806 281.063C486.517 284.302 490.247 289.632 491.803 295.976C493.662 303.551 492.098 311.979 487.862 318.515C482.659 326.544 474.851 330.412 465.746 332.244C457.412 332.819 449.797 330.991 443.061 325.837C436.749 321.008 432.428 313.052 431.663 305.162C431.015 298.481 433.063 291.27 437.449 286.142C442.808 279.875 450.198 278.071 457.997 277.305Z"/>
	<path d="M466.541 287.094C468.634 287.195 470.816 287.882 472.633 288.923C475.724 290.694 477.822 293.565 478.629 297.033C479.592 301.17 479 305.675 476.61 309.235C473.818 313.393 470.292 314.792 465.624 315.749C463.676 315.387 461.564 314.926 459.8 314.008C456.437 312.259 453.843 309.167 452.882 305.485Q452.702 304.789 452.594 304.078Q452.486 303.367 452.45 302.648Q452.414 301.93 452.452 301.212Q452.489 300.494 452.599 299.783Q452.709 299.072 452.891 298.376Q453.072 297.68 453.323 297.006Q453.575 296.332 453.893 295.687Q454.211 295.042 454.593 294.433C457.461 289.847 461.56 288.287 466.541 287.094Z"/>
	<path fill="#FEFEFE" d="M466.479 288.387C468.179 288.339 470.127 288.305 471.624 289.244C472.728 289.937 473.437 290.871 473.608 292.196C473.824 293.873 472.72 295.247 471.814 296.528C470.086 296.548 468.094 296.655 466.527 295.786C465.433 295.18 464.769 294.373 464.588 293.099C464.352 291.448 465.671 289.714 466.479 288.387Z"/>
	<path fill="#E22325" d="M691.964 656.195C697.244 660.342 702.024 667.246 706.247 672.45Q721.47 690.879 735.58 710.174C723.325 724.275 710.266 737.722 697.981 751.825C690.667 759.608 683.642 767.707 676.487 775.638C676.435 761.986 678.705 748.072 680.381 734.54C683.635 708.261 687.442 682.288 691.964 656.195Z"/>
	<path fill="#FEFEFE" d="M777.753 602.939C778.006 602.953 778.249 602.958 778.498 603.039C782.806 604.449 799.578 632.866 802.563 638.651C777.724 647.036 754.756 658.324 735.926 677.022C732.868 672.875 730.023 668.629 726.761 664.629C721.301 657.935 715.357 651.649 710.016 644.855C727.932 627.097 754.488 612.313 777.753 602.939Z"/>
	<path fill="#10BCD1" d="M504.934 168.716C545.008 166.267 596.097 176.36 629.43 199.249C629.571 203.855 630.105 208.493 630.481 213.088Q627.311 211.187 624.078 209.396Q620.844 207.605 617.55 205.927Q614.257 204.249 610.907 202.686Q607.557 201.122 604.156 199.676Q600.754 198.229 597.305 196.901Q593.855 195.573 590.362 194.365Q586.868 193.156 583.335 192.07Q579.802 190.983 576.234 190.019Q572.665 189.055 569.066 188.214Q565.466 187.374 561.84 186.659Q558.213 185.943 554.564 185.354Q550.915 184.764 547.248 184.301Q543.58 183.837 539.899 183.501Q536.218 183.165 532.528 182.956Q528.837 182.747 525.142 182.666Q521.446 182.585 517.75 182.631C483.234 182.034 447.709 191.177 416.467 205.387C409.089 208.744 402.151 212.909 394.883 216.484Q395.656 209.448 396.681 202.444C427.098 180.512 468.087 171.309 504.934 168.716Z"/>
	<path fill="#E22325" d="M332.707 651.368C337.15 656.966 346.04 757.901 347.162 772.295C338.836 765.54 331.75 757.364 324.52 749.486L286.793 711.496Q308.237 680.277 332.707 651.368Z"/>
	<path fill="#E22325" d="M752.497 566.411C757.227 567.559 774.136 595.198 777.9 600.935C750.946 610.583 729.828 624.474 708.865 643.86C700.483 634.002 691.945 623.983 682.844 614.785C683.501 613.035 684.171 611.404 685.362 609.94C694.812 598.321 723.923 581.156 737.329 573.882C742.276 571.198 747.465 568.937 752.497 566.411Z"/>
	<path fill="#E22325" d="M270.992 566.667C279.244 569.977 287.656 573.215 295.531 577.369C300.71 580.101 305.956 584.446 311.498 586.24C316.956 588.353 328.364 597.713 332.165 602.128C332.702 604.392 337.277 610.236 338.665 614.081C329.49 623.77 321.506 633.608 313.662 644.38C311.754 642.6 309.511 640.007 307.245 638.79L306.897 638.468C298.28 623.28 262.042 607.078 245.664 599.882C254.316 588.986 262.128 577.398 270.992 566.667Z"/>
	<path fill="#FEFEFE" d="M244.982 601.057C268.251 609.012 288.807 621.914 306.897 638.468L307.245 638.79C308.934 641.018 311.075 643.06 312.989 645.111C304.749 656.69 295.648 667.775 286.961 679.027C270.791 656.881 243.603 644.553 217.407 639.161C225.895 625.842 235.74 613.815 244.982 601.057Z"/>
	<path fill="#FEFEFE" d="M614.331 513.366L616.456 513.657C645.885 519.601 675.025 525.982 703.886 534.326C699.81 545.346 694.981 556.586 692.158 567.982C673.111 563.439 654.281 558.565 634.968 555.179C627.941 552.866 619.553 552.121 612.216 550.856C597.177 548.264 582.11 545.467 566.933 543.816C586.112 534.219 597.71 527.94 614.331 513.366Z"/>
	<path fill="#FEFEFE" d="M408.842 515.146C413.52 518.931 418.019 523.006 422.866 526.567C434.302 534.969 447.049 540.911 460.125 546.266Q447.31 547.822 434.479 549.24Q394.841 554.478 355.786 563.04C348.111 564.772 340.286 566.294 332.738 568.502L331.668 568.481C329.64 566.628 322.472 539.373 321.135 534.776C328.151 533.243 335.128 531.053 342.063 529.164C347.217 528.116 352.466 526.945 357.467 525.31C374.524 521.815 391.6 517.585 408.842 515.146Z"/>
	<path fill="#477B4D" d="M508.263 198.201C538.13 195.714 566.967 203.74 594.044 215.649C605.011 220.473 615.719 225.914 626.817 230.443C635.132 233.836 643.665 236.34 652.216 239.039C639.696 242.736 627.562 244.088 614.638 245.188C622.669 254.713 630.568 261.672 642.486 265.844C646.087 267.105 649.86 267.862 653.387 269.321C653.524 269.378 653.66 269.438 653.797 269.496L645.75 269.486C636.135 269.604 626.355 268.61 617.525 264.55C613.276 257.627 607.749 251.198 602.35 245.169C590.307 243.035 577.866 243.318 565.785 241.207C529.951 234.949 495.62 221.496 462.624 206.488C477.657 202.226 492.631 199.114 508.263 198.201Z"/>
	<path fill="#F3D6A8" d="M453.947 214.846C488.888 228.877 517.292 241.839 554.967 249.514C568.325 252.235 581.551 253.431 595.023 255.146C603.22 262.97 608.532 270.525 613.283 280.818C609.275 279.976 605.191 279.399 601.149 278.73C598.016 274.426 595.034 270.463 590.738 267.232C580.543 259.563 568.928 258.093 556.611 259.835C547.128 263.931 540.482 269.594 533.304 276.891C520.66 277.957 508.036 277.844 495.374 277.171C492.46 273.247 489.063 269.556 485.172 266.583C476.582 260.021 466.119 257.195 455.404 258.688C441.639 260.605 432.672 268.094 424.548 278.78L415.992 278.437Q415.445 272.213 414.735 266.005C423.575 258.439 432.747 250.76 438.77 240.63C444.156 231.571 446.026 222.433 453.947 214.846Z"/>
	<path fill="#FEFEFE" d="M391.543 858.612C409.401 855.647 427.263 852.073 445.248 849.967Q457.303 848.622 469.402 847.759Q481.501 846.895 493.624 846.514Q505.748 846.133 517.877 846.235Q530.007 846.338 542.122 846.923Q554.238 847.508 566.32 848.575Q578.403 849.643 590.434 851.191Q602.464 852.738 614.423 854.764Q626.383 856.79 638.252 859.29C623.294 865.322 607.985 869.091 592.226 872.409Q587.336 873.473 582.42 874.407Q577.504 875.341 572.565 876.146Q567.626 876.95 562.667 877.623Q557.709 878.297 552.734 878.84Q547.76 879.382 542.773 879.794Q537.785 880.205 532.789 880.484Q527.793 880.764 522.791 880.911Q517.789 881.059 512.785 881.074Q507.781 881.09 502.778 880.973Q497.776 880.857 492.778 880.608Q487.78 880.36 482.79 879.979Q477.801 879.599 472.823 879.088Q467.845 878.576 462.882 877.933Q457.92 877.29 452.976 876.516Q448.032 875.743 443.11 874.839Q438.188 873.935 433.292 872.902C418.134 869.852 402.333 866.154 387.994 860.259L391.543 858.612Z"/>
	<path fill="#FEFEFE" d="M504.843 97.6966C529.359 95.5803 556.16 101.871 577.056 114.818C598.808 128.297 617.479 151.677 623.347 176.818C585.699 160.156 558.739 153.822 517.625 151.626C484.309 151.548 451.989 158.785 421.065 170.945C414.377 173.575 408.408 177.872 401.68 180.367C401.497 180.436 401.312 180.499 401.127 180.565C405.469 166.253 411.566 153.472 420.899 141.683C442.767 114.059 470.396 101.579 504.843 97.6966Z"/>
	<path fill="#E22325" d="M535.453 107.834C540.124 108.812 545.019 109.267 549.777 109.609Q545.107 119.225 540.806 129.011C538.023 135.391 535.569 142.329 531.579 148.068C528.396 147.594 525.147 147.333 521.947 146.981C519.027 141.295 517.441 134.919 514.585 129.136C511.513 135.364 508.92 141.877 506.19 148.265L497.228 148.832C495.548 145.086 494.146 141.195 492.66 137.368Q486.265 123.02 480.836 108.28C485.865 108.613 490.948 108.479 495.987 108.48C498.13 114.066 499.994 119.753 502.476 125.204C504.12 119.521 506.451 114.014 508.589 108.5L520.08 108.241C523.278 113.992 525.324 120.536 528.213 126.492Q531.77 117.139 535.453 107.834Z"/>
	<path fill="#FEFEFE" d="M457.046 760.779C492.536 758.068 527.571 757.1 563.085 759.959Q578.686 761.119 594.182 763.26C600.396 764.101 607.184 765.637 613.436 765.748C628.053 768.913 643.351 770.232 657.622 774.833C656.277 788.273 655.703 801.861 654.885 815.346C641.07 811.902 626.792 809.923 612.72 807.819Q605.154 806.679 597.564 805.711Q589.974 804.743 582.365 803.946Q574.755 803.149 567.129 802.525Q559.504 801.901 551.866 801.449Q544.228 800.997 536.582 800.719Q528.935 800.44 521.285 800.333Q513.634 800.227 505.983 800.294Q498.332 800.361 490.685 800.601Q483.037 800.841 475.397 801.254Q467.757 801.667 460.128 802.252Q452.499 802.837 444.886 803.595Q437.272 804.352 429.677 805.282Q422.083 806.211 414.511 807.312Q406.94 808.413 399.395 809.685Q391.85 810.957 384.336 812.399Q376.822 813.841 369.342 815.453C367.57 802.204 367.412 788.306 366.516 774.95C396.549 769.011 426.574 763.866 457.046 760.779Z"/>
	<path fill="#E22325" d="M369.482 816.211Q376.365 814.743 383.277 813.418Q390.189 812.093 397.126 810.911Q404.064 809.729 411.025 808.69Q417.985 807.652 424.966 806.757Q431.947 805.863 438.944 805.113Q445.942 804.363 452.954 803.757Q459.965 803.152 466.988 802.692Q474.01 802.231 481.041 801.916Q488.072 801.601 495.107 801.431Q502.143 801.261 509.181 801.236Q516.218 801.212 523.255 801.332Q530.292 801.453 537.324 801.719Q544.357 801.985 551.383 802.397Q558.409 802.808 565.424 803.365Q572.44 803.921 579.443 804.622Q586.445 805.323 593.432 806.169C613.89 808.526 634.601 811.227 654.531 816.543C654.497 828.721 654.292 840.837 654.528 853.017C638.912 860.35 635.491 857.657 619.669 854.706Q613.374 853.572 607.055 852.574Q600.737 851.576 594.399 850.714Q588.061 849.852 581.705 849.127Q575.35 848.402 568.98 847.814Q562.611 847.226 556.23 846.775Q549.849 846.324 543.46 846.011Q537.071 845.698 530.677 845.522Q524.283 845.347 517.886 845.309Q511.49 845.271 505.094 845.371Q498.698 845.471 492.306 845.709Q485.914 845.947 479.528 846.322Q473.143 846.697 466.767 847.21Q460.391 847.722 454.027 848.372Q447.664 849.022 441.316 849.809Q434.967 850.596 428.638 851.519Q422.308 852.443 416 853.502C409.43 854.634 396.824 855.004 391.543 858.612L387.994 860.259C382.025 858.05 375.981 856.048 370.001 853.865C370.134 841.331 369.614 828.749 369.482 816.211Z"/>
	<path fill="#FEFEFE" d="M357.446 689.06C367.181 687.306 376.793 684.792 386.515 682.93Q424.144 675.586 462.311 671.965C475.475 670.805 489.114 669.67 502.332 669.56C512.691 669.474 523.049 670.234 533.415 669.95C544.103 671.081 554.88 671.318 565.582 672.295Q594.467 675.167 623.01 680.446C637.551 683.034 652.298 685.618 666.394 690.104Q664.018 710.265 661.848 730.448C632.94 723.915 603.903 718.303 574.318 715.967C570.654 714.548 564.219 714.916 560.129 714.658C538.37 713.284 516.218 712.559 494.416 713.035C486.105 713.216 477.776 713.968 469.473 714.391C462.125 714.595 454.736 715.512 447.422 716.237C417.721 719.184 391.708 724.428 362.688 730.908C361.053 716.971 358.746 703.017 357.446 689.06Z"/>
	<path fill="#E22325" d="M469.473 714.391C477.776 713.968 486.105 713.216 494.416 713.035C516.218 712.559 538.37 713.284 560.129 714.658C564.219 714.916 570.654 714.548 574.318 715.967C581.851 718.801 592.986 718.376 601.1 719.615C621.241 722.692 642.034 726.371 661.676 731.82L657.378 773.513C647.785 771.531 622.111 765.037 613.436 765.748C607.184 765.637 600.396 764.101 594.182 763.26Q578.686 761.119 563.085 759.959C527.571 757.1 492.536 758.068 457.046 760.779C443.798 758.86 382.294 770.417 366.584 773.862C365.476 759.869 364.118 745.884 362.83 731.905C384.241 727.348 405.334 722.623 427.047 719.558C434.473 718.51 442.039 717.414 449.497 716.659C454.677 716.135 468.784 716.034 472.659 714.653L469.473 714.391Z"/>
	<path fill="#FEFEFE" d="M371.038 600.765C394.521 596.259 418.262 591.784 442.008 588.909Q455.493 587.259 469.041 586.245Q482.589 585.231 496.17 584.854Q509.75 584.477 523.334 584.739Q536.917 585.001 550.473 585.901C559.787 586.482 569.236 587.233 578.5 588.405C587.175 589.501 595.849 591.075 604.565 591.761C613.647 593.659 622.836 594.977 631.918 596.868C648.415 600.303 664.599 604.502 680.803 609.103C678.572 621.999 675.012 634.644 673.229 647.634C670.778 647.002 668.29 646.226 665.796 645.807C656.617 642.946 647.038 641.063 637.637 639.076C603.577 631.876 569.222 628.077 534.502 626.067C520.398 625.25 503.977 624.317 490.027 626.46C456.002 626.456 413.248 633.03 380.178 640.287C370.268 642.462 360.515 645.176 350.661 647.567Q346.297 627.665 341.645 607.828C351.227 605.008 361.312 603.131 371.038 600.765Z"/>
	<path fill="#F3D6A8" d="M508.616 297.034L518.617 297.022C518.682 307.762 524.173 319.121 530.495 327.568C537.469 336.887 547.552 343.251 559.157 344.794C573.496 346.702 591.745 339.91 599.33 326.995C600.951 324.234 602.389 321.191 603.428 318.161C604.873 313.949 605.49 305.416 609.722 302.985C611 302.251 611.347 302.373 612.702 302.666C612.78 302.82 612.876 302.966 612.936 303.127C615.62 310.287 600.576 359.061 597.2 368.595L592.513 359.657C594.639 368.402 595.584 374.554 591.616 383.027C589.824 379.05 588.547 374.979 586.171 371.274C586.804 376.785 587.995 382.353 589.033 387.807C587.493 391.31 585.41 394.537 583.421 397.797C582.262 390.875 581 384.491 578.203 378.027Q579.599 389.499 580.712 401.001C578.846 403.209 577.078 405.515 575.277 407.778C574.221 400.062 572.896 392.524 571.166 384.932C570.693 393.932 571.168 403.148 570.977 412.187C568.745 413.775 566.664 415.554 564.555 417.299C563.711 410.136 563.312 403.142 561.648 396.085Q560.517 408.235 560.497 420.438C558.323 421.583 556.227 422.935 554.114 424.194C553.35 416.188 553.043 408.455 551.323 400.548C550.589 408.861 550.464 417.211 550.301 425.551C548.276 426.559 546.433 427.676 544.563 428.949Q543.918 415.716 541.875 402.625C540.773 411.884 540.536 421.167 540.228 430.476L533.345 432.846C533.379 428.914 533.499 410.046 531.772 407.954L532.371 408.132L532.065 406.917L532.072 408.001L530.995 407.723L531.798 408.694C531.072 415.289 531.198 425.664 528.694 431.452C528.084 432.862 527.327 434.022 525.88 434.641L525.166 434.183C522.649 426.831 523.443 416.021 522.516 408.03C521.513 415.522 522.29 430.052 518.32 436.243L517.522 436.218C514.662 432.772 514.555 416.311 514.155 411.23C513.133 416.712 512.902 422.327 512.252 427.861C511.942 430.505 511.63 433.548 509.429 435.312C508.184 435.366 508.228 435.434 507.292 434.627C506.483 430.98 506.52 427.353 506.479 423.635Q505.888 416.872 504.554 410.216C503.358 418.325 502.96 426.716 502.385 434.898C500.128 434.424 497.935 433.732 495.726 433.074C495.912 424.737 496.183 416.399 495.791 408.065C493.853 416.035 492.326 423.882 491.427 432.044C490.029 431.472 488.656 430.748 487.29 430.098C487.498 421.711 486.56 412.343 487.851 404.102C484.948 411.873 484.017 420.365 483.032 428.556L478.476 426.158C478.505 416.591 479.307 407.011 479.984 397.472C477.067 406.571 475.295 415.46 474.355 424.962C473.106 423.836 471.791 422.775 470.506 421.691C470.271 411.617 472.248 401.531 471.729 391.494C470.236 400.849 467.637 410.096 466.085 419.507C464.708 418.409 463.372 417.251 462.019 416.122C461.859 405.747 463.493 395.901 464.804 385.678C461.095 394.758 459.343 403.229 457.757 412.863L452.656 408.542C453.919 399.072 455.529 389.458 456.173 379.929C453.028 388.174 451.05 396.434 449.111 405.017C447.664 403.493 446.403 401.997 445.23 400.252C445.403 390.876 447.288 381.083 448.186 371.71C444.894 379.886 443.208 388.416 441.352 396.996Q438.945 392.104 436.41 387.277C437.797 379.805 439.474 372.415 441.185 365.011C437.755 370.405 435.273 376.406 433.345 382.478C426.057 364.006 422.047 345.433 418.636 325.935C417.75 320.869 414.628 303.68 417.199 300.022C419.506 301.891 421.435 313.892 422.791 317.465C424.504 321.982 426.729 326.085 429.851 329.787Q430.537 330.601 431.262 331.38Q431.987 332.159 432.75 332.901Q433.514 333.643 434.313 334.345Q435.112 335.048 435.945 335.711Q436.778 336.373 437.644 336.993Q438.509 337.612 439.404 338.188Q440.299 338.764 441.222 339.295Q442.144 339.826 443.092 340.31Q444.04 340.794 445.011 341.23Q445.982 341.666 446.973 342.053Q447.964 342.441 448.974 342.778Q449.983 343.115 451.008 343.402Q452.033 343.689 453.071 343.924Q454.109 344.159 455.158 344.342Q456.206 344.526 457.262 344.656Q458.319 344.787 459.38 344.865Q460.432 344.949 461.487 344.981Q462.543 345.013 463.598 344.991Q464.654 344.97 465.707 344.897Q466.76 344.823 467.808 344.696Q468.856 344.57 469.896 344.392Q470.937 344.213 471.967 343.983Q472.997 343.753 474.015 343.471Q475.032 343.19 476.034 342.858Q477.036 342.526 478.021 342.144Q479.005 341.763 479.969 341.333Q480.933 340.902 481.874 340.425Q482.816 339.947 483.732 339.422Q484.648 338.898 485.537 338.329Q486.426 337.759 487.285 337.146Q488.145 336.533 488.972 335.878Q489.8 335.223 490.594 334.527C502.199 324.37 507.635 312.334 508.616 297.034Z"/>
	<path d="M525.099 335.964C528.343 336.968 530.788 337.995 533.406 340.216C534.378 341.43 535.402 342.666 536.18 344.018C537.629 346.535 538.513 349.732 537.533 352.572C536.514 355.525 533.771 357.371 531.076 358.664C522.509 362.777 512.29 362.502 503.471 359.299C499.868 357.991 494.599 355.608 493.153 351.791C492.203 349.284 493.036 347.315 494.225 345.063C497.052 339.706 501.246 338.301 506.701 336.652L506.711 337.215C504.336 339.056 501.854 341.027 500.278 343.633C499.391 345.099 498.726 347.343 499.459 349.01C499.903 350.02 500.421 350.425 501.384 350.828C502.427 349.659 503.28 348.226 504.867 348.063C505.619 349.179 506.375 350.372 507.274 351.376C509.266 353.598 513.827 354.142 516.639 354.188C521.603 354.268 524.651 351.875 527.977 348.57C529.048 349.088 528.691 351.461 529.638 352.603C530.048 352.388 530.322 352.277 530.666 351.916C531.663 350.87 532.218 349.407 532.236 347.973C532.297 343.168 528.198 339.148 525.099 335.964Z"/>
	<path d="M580.314 356.549C579.907 359.854 569.899 368.561 567.312 370.719Q566.562 371.349 565.797 371.96Q565.031 372.571 564.251 373.163Q563.471 373.755 562.676 374.327Q561.881 374.899 561.071 375.451Q560.262 376.003 559.44 376.534Q558.617 377.066 557.781 377.576Q556.945 378.087 556.097 378.576Q555.249 379.066 554.388 379.534Q553.528 380.002 552.656 380.449Q551.785 380.895 550.902 381.319Q550.019 381.744 549.126 382.146Q548.233 382.548 547.33 382.927Q546.427 383.307 545.515 383.664Q544.603 384.021 543.682 384.354Q542.761 384.688 541.833 384.999Q540.904 385.31 539.967 385.597Q539.031 385.884 538.088 386.148Q537.145 386.412 536.195 386.652Q535.245 386.892 534.29 387.108Q533.335 387.324 532.375 387.516Q531.414 387.708 530.449 387.876Q529.484 388.044 528.515 388.187Q527.547 388.331 526.574 388.45Q525.602 388.57 524.628 388.665Q523.653 388.76 522.676 388.83Q521.699 388.9 520.721 388.946Q519.742 388.992 518.763 389.014Q517.784 389.035 516.805 389.032Q515.825 389.029 514.846 389.001Q513.867 388.973 512.889 388.921Q511.911 388.869 510.935 388.792Q509.958 388.715 508.984 388.614Q507.211 388.456 505.448 388.212Q503.685 387.968 501.936 387.638Q500.187 387.309 498.456 386.894Q496.725 386.479 495.017 385.981Q493.308 385.482 491.626 384.901Q489.944 384.319 488.292 383.657Q486.64 382.994 485.022 382.252Q483.405 381.509 481.825 380.689Q480.246 379.868 478.708 378.972Q477.171 378.075 475.679 377.105Q474.187 376.134 472.744 375.092Q471.301 374.05 469.911 372.939Q468.52 371.828 467.186 370.65Q465.851 369.473 464.576 368.231Q463.3 366.99 462.087 365.688Q460.873 364.386 459.725 363.026C457.783 360.859 455.966 358.591 454.13 356.335C468.832 369.206 484.371 377.659 503.989 380.111Q505.965 380.352 507.949 380.512Q509.933 380.673 511.922 380.752Q513.911 380.832 515.902 380.83Q517.892 380.829 519.881 380.747Q521.87 380.665 523.854 380.501Q525.838 380.338 527.813 380.095Q529.789 379.851 531.753 379.528Q533.717 379.204 535.666 378.801Q537.616 378.397 539.547 377.915Q541.478 377.433 543.388 376.873Q545.298 376.312 547.184 375.675Q549.07 375.037 550.928 374.324Q552.786 373.61 554.614 372.821Q556.441 372.033 558.236 371.17Q560.03 370.308 561.787 369.374Q563.545 368.439 565.263 367.434C570.617 364.233 575.401 360.359 580.314 356.549Z"/>
	<path fill="#E22325" d="M490.027 626.46C503.977 624.317 520.398 625.25 534.502 626.067C569.222 628.077 603.577 631.876 637.637 639.076C647.038 641.063 656.617 642.946 665.796 645.807C667.566 647.397 670.798 648.061 673.069 648.783Q670.643 661.388 668.739 674.082C667.983 679.053 667.505 684.218 666.436 689.124C632.67 679.124 592.026 673.832 556.849 670.92C549.505 670.312 540.639 668.896 533.415 669.95C523.049 670.234 512.691 669.474 502.332 669.56C489.114 669.67 475.475 670.805 462.311 671.965Q424.144 675.586 386.515 682.93C376.793 684.792 367.181 687.306 357.446 689.06C354.912 675.717 352.934 662.224 350.723 648.821C359.039 646.04 367.923 644.233 376.477 642.323Q413.841 634.179 451.873 630.179C464.535 628.861 477.468 628.487 490.027 626.46Z"/>
	<path fill="#E22325" d="M566.933 543.816C582.11 545.467 597.177 548.264 612.216 550.856C619.553 552.121 627.941 552.866 634.968 555.179C635.146 555.385 635.279 555.642 635.503 555.798C636.842 556.728 646.636 558.105 649.177 558.68C663.467 561.916 677.992 565.164 692.006 569.46C688.122 582.271 684.902 595.199 681.209 608.047C674.308 606.371 667.59 604.058 660.702 602.319Q639.708 597.171 618.391 593.591C614.188 592.868 608.787 591.35 604.565 591.761C595.849 591.075 587.175 589.501 578.5 588.405C569.236 587.233 559.787 586.482 550.473 585.901Q536.917 585.001 523.334 584.739Q509.75 584.477 496.17 584.854Q482.589 585.231 469.041 586.245Q455.493 587.259 442.008 588.909C418.262 591.784 394.521 596.259 371.038 600.765C362.988 599.674 349.12 604.867 341.133 607.137C339.658 602.419 330.898 571.96 331.482 569.199C331.744 569.104 332.026 569.051 332.27 568.915C332.452 568.814 332.582 568.64 332.738 568.502C340.286 566.294 348.111 564.772 355.786 563.04Q394.841 554.478 434.479 549.24C443.734 550.29 453.31 546.893 462.683 547.565C471.037 548.165 479.187 551.127 487.497 552.306C515.899 556.336 539.992 552.108 566.933 543.816Z"/>
	<path fill="#E22325" d="M639.954 163.321C729.918 197.39 807.233 268.387 846.888 356.376Q848.457 359.835 849.957 363.324Q851.457 366.814 852.886 370.333Q854.316 373.851 855.676 377.398Q857.035 380.945 858.323 384.518Q859.611 388.091 860.828 391.689Q862.044 395.287 863.189 398.909Q864.333 402.53 865.405 406.174Q866.477 409.818 867.476 413.482Q868.475 417.147 869.401 420.83Q870.327 424.514 871.178 428.215Q872.03 431.917 872.808 435.634Q873.586 439.352 874.289 443.084Q874.993 446.817 875.622 450.563Q876.25 454.308 876.804 458.066Q877.358 461.823 877.837 465.591Q878.316 469.359 878.719 473.136Q879.123 476.913 879.45 480.697Q879.778 484.481 880.031 488.27Q880.283 492.06 880.46 495.854Q880.636 499.648 880.737 503.445Q880.838 507.242 880.863 511.04Q880.888 514.838 880.837 518.636Q880.786 522.434 880.659 526.23Q880.533 530.026 880.33 533.819Q880.128 537.611 879.85 541.399Q879.572 545.187 879.218 548.969Q878.864 552.751 878.435 556.524Q878.006 560.298 877.502 564.063Q876.997 567.827 876.418 571.581Q875.838 575.335 875.184 579.076Q874.53 582.818 873.801 586.545Q873.072 590.273 872.269 593.985C868.746 610.292 864.265 626.735 858.329 642.344C854.407 652.658 849.521 662.544 845.335 672.736C832.407 648.761 818.919 625.324 803.923 602.572C794.432 588.174 784.009 574.441 774.573 559.99L767.597 550.372C757.675 539.39 748.97 527.215 739.106 516.112C731.551 507.607 723.199 499.078 713.747 492.714C692.394 478.335 654.884 472.082 629.108 466.015C618.801 455.624 611.748 442.748 597.662 436.551C589.051 432.763 581.505 434.447 573.185 437.681L573.035 429.321C594.549 412.421 604.965 396.493 613.31 370.509C619.055 370.561 624.368 370.252 629.866 368.456C642.206 364.426 652.161 354.188 657.919 342.774C665.428 327.887 665.4 316.032 660.322 300.487C665.366 292.008 669.667 283.026 674.458 274.386C682.001 260.782 689.979 247.455 697.9 234.069C692.936 231.021 687.292 228.881 681.948 226.593C682.191 219.729 682.28 212.934 681.432 206.098C669.904 212.139 661.511 213.728 648.535 211.82C647.786 194.963 645.054 179.456 639.954 163.321Z"/>
	<path fill="#FEFEFE" d="M767.537 543.231C770.218 539.2 773.17 535.576 778.238 534.686C781.512 534.112 784.977 535.035 787.632 537.006C790.535 539.161 792.29 542.414 792.785 545.968C793.255 549.347 792.374 552.029 791.075 555.093C785.944 559.563 781.173 560.223 774.573 559.99L767.597 550.372C767.554 547.999 767.439 545.603 767.537 543.231Z"/>
	<path fill="#FEFEFE" d="M797.192 439.193C800.226 438.979 803.36 439.153 806.372 439.555C817.008 440.972 828.985 445.907 835.509 454.814C840.357 461.434 841.767 469.846 840.509 477.844C837.307 498.198 818.7 500.319 804.73 510.669C797.838 515.776 795.406 522.898 794.201 531C788.981 528.977 783.505 527.372 778.062 526.077C779.7 519.659 781.409 513.313 783.875 507.157C792.263 491.541 811.863 490.821 816.959 477.753C818.567 473.628 818.707 469.055 816.859 464.982C815.105 461.119 811.623 457.876 807.622 456.448C804.056 455.175 800.334 455.496 797.011 457.301C790.103 461.053 787.914 468.926 785.719 475.878C778.748 473.933 771.805 472.138 764.612 471.192C766.13 463.965 768.097 456.935 772.9 451.142C779.178 443.57 787.594 440.156 797.192 439.193Z"/>
	<path fill="#FEFEFE" d="M778.191 295.925C789.754 309.7 810.978 340.851 815.237 357.867C818.595 371.282 817.252 386.167 810.035 398.14C802.253 411.048 787.983 420.815 773.438 424.4C759.518 427.831 746.92 424.644 734.879 417.355C712.916 399.876 699.88 372.543 686.442 348.509C718.99 348.799 755.748 317.895 778.191 295.925Z"/>
	<path fill="#E22325" d="M783.546 335.871C785.035 336.727 785.76 338.258 786.364 339.809C789.982 349.094 791.076 359.344 786.869 368.619C782.772 377.653 773.905 384.566 764.718 387.885C754.397 391.614 744.559 390.631 734.71 386.068C730.098 383.189 726.16 380.217 722.36 376.318C744.859 365.198 764.364 351.975 783.546 335.871Z"/>
	<path fill="#FEFEFE" d="M176.265 665.85Q166 643.252 158.739 619.517Q157.417 615.156 156.203 610.765Q154.988 606.373 153.882 601.953Q152.776 597.533 151.778 593.087Q150.781 588.641 149.892 584.172Q149.004 579.703 148.226 575.214Q147.448 570.724 146.78 566.217Q146.112 561.71 145.554 557.187Q144.997 552.665 144.551 548.13Q144.105 543.596 143.77 539.052Q143.435 534.508 143.212 529.957Q142.988 525.406 142.877 520.851Q142.765 516.295 142.765 511.739Q142.766 507.183 142.878 502.627Q142.989 498.072 143.213 493.521Q143.437 488.97 143.772 484.426Q144.107 479.882 144.553 475.348Q145 470.813 145.558 466.291Q146.115 461.769 146.783 457.262Q147.452 452.754 148.23 448.265Q149.009 443.775 149.898 439.306Q150.786 434.838 151.784 430.392Q152.782 425.946 153.889 421.526Q154.995 417.106 156.21 412.714Q157.425 408.323 158.747 403.962Q160.069 399.602 161.497 395.275Q162.926 390.948 164.46 386.658Q165.995 382.368 167.634 378.116Q169.273 373.865 171.016 369.655Q172.758 365.445 174.604 361.279Q176.45 357.113 178.397 352.993Q180.344 348.874 182.392 344.803Q184.439 340.733 186.586 336.714Q188.203 333.73 189.875 330.776Q191.546 327.821 193.27 324.898Q194.994 321.974 196.771 319.082Q198.547 316.19 200.376 313.33Q202.204 310.471 204.084 307.645Q205.964 304.818 207.895 302.027Q209.825 299.235 211.806 296.479Q213.787 293.722 215.817 291.002Q217.847 288.282 219.926 285.599Q222.005 282.916 224.132 280.271Q226.258 277.625 228.433 275.019Q230.607 272.413 232.828 269.846Q235.049 267.279 237.316 264.753Q239.583 262.227 241.895 259.742Q244.208 257.258 246.564 254.815Q248.921 252.372 251.321 249.972Q253.722 247.573 256.165 245.217Q258.609 242.861 261.094 240.549Q263.579 238.238 266.106 235.971Q268.633 233.705 271.2 231.485Q273.768 229.264 276.374 227.091Q278.981 224.917 281.627 222.791Q284.273 220.665 286.957 218.587Q289.64 216.508 292.361 214.479Q295.082 212.45 297.839 210.47Q300.596 208.49 303.388 206.56Q306.18 204.63 309.007 202.751Q311.833 200.872 314.693 199.044Q317.553 197.217 320.446 195.441Q323.339 193.665 326.263 191.942Q329.187 190.218 332.142 188.548Q335.096 186.878 338.081 185.261C353.773 176.755 369.899 169.021 387.026 163.858C380.115 182.82 373.67 202.426 376.196 222.888C378.551 227.459 381.072 232.006 383.02 236.767C376.799 239.134 369.591 241.979 363.073 238.954C358.643 236.898 355.888 232.928 353.174 229.058C348.417 236.03 346.976 243.671 348.497 251.945C350.578 263.27 357.896 273.04 367.302 279.408C367.859 279.785 368.42 280.14 368.994 280.492C360.387 294.047 356.272 307.278 359.789 323.314C360.745 327.673 362.189 332.021 363.894 336.144C374.065 351.159 385.714 365.405 404.463 369.072Q409.049 369.935 413.695 370.374C422.633 395.367 432.656 408.618 451.725 426.534L451.68 437.519C441.309 433.221 432.876 431.694 422.196 436.178Q421.06 436.666 419.95 437.209Q418.84 437.752 417.757 438.348Q416.674 438.945 415.622 439.593Q414.57 440.242 413.551 440.941Q412.532 441.64 411.548 442.388Q410.564 443.136 409.617 443.931Q408.671 444.727 407.765 445.567Q406.859 446.407 405.995 447.291Q405.13 448.175 404.31 449.1Q403.49 450.024 402.716 450.988Q401.942 451.952 401.216 452.952Q400.49 453.952 399.814 454.987Q399.138 456.022 398.513 457.088Q397.888 458.154 397.316 459.25Q396.744 460.345 396.226 461.468Q395.708 462.59 395.245 463.736Q394.314 466.095 393.459 468.483C367.507 470.615 321.668 481.676 301.226 497.521C294.356 502.846 289.924 510.268 283.738 516.188C274.637 528.081 266.418 540.562 257.426 552.492C240.727 575.976 222.76 598.573 205.742 621.831C195.269 636.143 185.013 650.403 176.265 665.85Z"/>
	<path fill="#E22325" d="M240.55 357.589C247.932 356.641 254.02 360.484 260.18 363.918C252.98 369.479 250.197 373.54 246.21 381.578C244.686 381.834 243.778 381.106 242.394 380.472C235.268 377.338 228.378 373.525 221.523 369.849C227.185 363.852 232.553 359.846 240.55 357.589Z"/>
	<path fill="#E22325" d="M273.442 373.523C275.489 373.449 277.794 373.362 279.82 373.703Q280.501 373.815 281.166 373.997Q281.831 374.179 282.473 374.431Q283.116 374.682 283.728 374.999Q284.34 375.317 284.916 375.697Q285.491 376.077 286.024 376.515Q286.556 376.954 287.04 377.446Q287.523 377.938 287.952 378.478Q288.381 379.018 288.751 379.6C293.478 387.104 291.092 397.55 289.219 405.594C286.313 403.654 283.239 401.899 280.26 400.07C272.618 395.407 264.702 391.166 256.88 386.813C261.386 380.033 266.116 376.735 273.442 373.523Z"/>
	<path fill="#E22325" d="M363.894 336.144C374.065 351.159 385.714 365.405 404.463 369.072Q409.049 369.935 413.695 370.374C422.633 395.367 432.656 408.618 451.725 426.534L451.68 437.519C441.309 433.221 432.876 431.694 422.196 436.178Q421.06 436.666 419.95 437.209Q418.84 437.752 417.757 438.348Q416.674 438.945 415.622 439.593Q414.57 440.242 413.551 440.941Q412.532 441.64 411.548 442.388Q410.564 443.136 409.617 443.931Q408.671 444.727 407.765 445.567Q406.859 446.407 405.995 447.291Q405.13 448.175 404.31 449.1Q403.49 450.024 402.716 450.988Q401.942 451.952 401.216 452.952Q400.49 453.952 399.814 454.987Q399.138 456.022 398.513 457.088Q397.888 458.154 397.316 459.25Q396.744 460.345 396.226 461.468Q395.708 462.59 395.245 463.736Q394.314 466.095 393.459 468.483C367.507 470.615 321.668 481.676 301.226 497.521C294.356 502.846 289.924 510.268 283.738 516.188C283.632 512.723 283.915 509.192 284.055 505.726C265.873 503.805 247.317 497.01 230.068 491.204C248.65 489.829 266.751 489.082 285.391 489.795C286.393 477.687 289.08 465.662 291.896 453.871C276.554 450.033 261.85 444.567 246.785 439.823C226.389 433.399 204.538 428.066 185.581 417.962C192.155 412.754 197.799 409.363 206.468 409.324C233.98 409.2 273.751 430.29 292.99 449.151C303.473 415.455 318.007 386.037 341.496 359.426C348.534 351.451 356.712 344.442 363.622 336.463L363.894 336.144Z"/>
	<path fill="#E22325" d="M176.265 665.85Q166 643.252 158.739 619.517Q157.417 615.156 156.203 610.765Q154.988 606.373 153.882 601.953Q152.776 597.533 151.778 593.087Q150.781 588.641 149.892 584.172Q149.004 579.703 148.226 575.214Q147.448 570.724 146.78 566.217Q146.112 561.71 145.554 557.187Q144.997 552.665 144.551 548.13Q144.105 543.596 143.77 539.052Q143.435 534.508 143.212 529.957Q142.988 525.406 142.877 520.851Q142.765 516.295 142.765 511.739Q142.766 507.183 142.878 502.627Q142.989 498.072 143.213 493.521Q143.437 488.97 143.772 484.426Q144.107 479.882 144.553 475.348Q145 470.813 145.558 466.291Q146.115 461.769 146.783 457.262Q147.452 452.754 148.23 448.265Q149.009 443.775 149.898 439.306Q150.786 434.838 151.784 430.392Q152.782 425.946 153.889 421.526Q154.995 417.106 156.21 412.714Q157.425 408.323 158.747 403.962Q160.069 399.602 161.497 395.275Q162.926 390.948 164.46 386.658Q165.995 382.368 167.634 378.116Q169.273 373.865 171.016 369.655Q172.758 365.445 174.604 361.279Q176.45 357.113 178.397 352.993Q180.344 348.874 182.392 344.803Q184.439 340.733 186.586 336.714Q188.203 333.73 189.875 330.776Q191.546 327.821 193.27 324.898Q194.994 321.974 196.771 319.082Q198.547 316.19 200.376 313.33Q202.204 310.471 204.084 307.645Q205.964 304.818 207.895 302.027Q209.825 299.235 211.806 296.479Q213.787 293.722 215.817 291.002Q217.847 288.282 219.926 285.599Q222.005 282.916 224.132 280.271Q226.258 277.625 228.433 275.019Q230.607 272.413 232.828 269.846Q235.049 267.279 237.316 264.753Q239.583 262.227 241.895 259.742Q244.208 257.258 246.564 254.815Q248.921 252.372 251.321 249.972Q253.722 247.573 256.165 245.217Q258.609 242.861 261.094 240.549Q263.579 238.238 266.106 235.971Q268.633 233.705 271.2 231.485Q273.768 229.264 276.374 227.091Q278.981 224.917 281.627 222.791Q284.273 220.665 286.957 218.587Q289.64 216.508 292.361 214.479Q295.082 212.45 297.839 210.47Q300.596 208.49 303.388 206.56Q306.18 204.63 309.007 202.751Q311.833 200.872 314.693 199.044Q317.553 197.217 320.446 195.441Q323.339 193.665 326.263 191.942Q329.187 190.218 332.142 188.548Q335.096 186.878 338.081 185.261C353.773 176.755 369.899 169.021 387.026 163.858C380.115 182.82 373.67 202.426 376.196 222.888C372.504 218.471 369.106 213.903 365.731 209.244C344.574 220.425 322.829 232.168 304.208 247.304C314.47 247.18 323.493 248.871 331.044 256.338C341.887 267.059 352.019 286.635 352.019 302.149C352.019 310.294 348.437 316.945 342.714 322.507C337.624 327.455 331.514 331.56 325.467 335.242Q312.026 322.216 298.33 309.457C287.65 299.518 272.897 288.561 265.665 276.029C255.766 285.937 247.227 296.763 238.342 307.566C249.642 313.539 259.671 321.935 269.667 329.816C286.382 342.995 303.006 356.805 318.6 371.3C301.814 375.905 286.664 368.465 271.791 361.36Q259.982 355.839 248.607 349.471C239.605 344.346 231.521 338.652 224.263 331.221C209.253 357.968 194.763 385.234 185.938 414.744C181.887 428.287 179.184 442.069 176.528 455.935C183.081 456.492 189.7 456.747 196.226 457.553C209.193 459.154 222.11 461.926 234.839 464.837C240.223 466.068 245.823 467.088 251.088 468.749Q225.87 469.098 200.686 470.461C192.128 470.842 183.158 470.608 174.719 471.992C173.846 485.872 172.47 499.786 172.637 513.703C195.149 500.027 244.855 504.092 269.997 510.298C271.463 510.66 272.896 511.064 274.321 511.565C242.844 517.727 204.954 522.707 172.949 523.651C173.38 539.223 174.538 554.494 176.682 569.926C180.857 566.45 184.896 563.14 189.823 560.757C208.349 551.796 237.083 552.407 257.426 552.492C240.727 575.976 222.76 598.573 205.742 621.831C195.269 636.143 185.013 650.403 176.265 665.85Z"/>
</svg>
